<?xml version="1.0" encoding="UTF-8"?>
<svg width="303px" height="109px" viewBox="0 0 303 109" version="1.1" xmlns="http://www.w3.org/2000/svg" xmlns:xlink="http://www.w3.org/1999/xlink">
    <!-- Generator: Sketch 48.2 (47327) - http://www.bohemiancoding.com/sketch -->
    <title>Logo</title>
    <desc>Created with Sketch.</desc>
    <defs></defs>
    <g id="Desktop-HD" stroke="none" stroke-width="1" fill="none" fill-rule="evenodd" transform="translate(-563.000000, -79.000000)">
        <g id="Logo" transform="translate(563.000000, 79.000000)" fill="#000000">
            <path d="M15.6218641,22.371978 C16.2363963,22.1864394 16.7179331,22.4749332 17.0664888,23.2374681 C17.382996,24.2857878 15.5982699,25.3965606 11.712257,26.5698198 L9.77351882,27.0072461 L10.6493661,29.9081854 C13.8375917,39.1616248 16.4357572,47.1139293 18.4439404,53.7653373 L23.5951409,52.2100945 L25.053536,51.6514464 C25.5415469,51.5041068 26.0094414,51.7474151 26.4572333,52.3813785 C26.7246273,53.267028 25.9546119,53.9826929 24.1471641,54.5283949 L15.3358999,57.1886786 L10.9361582,58.7832884 C10.4481473,58.9306279 9.93233891,58.6919249 9.38871752,58.0671721 C9.12132356,57.1815226 10.1624521,56.3840036 12.5121343,55.6745911 L15.8355981,54.4345124 C12.6347246,44.1593448 9.83312245,35.6965307 7.43070759,29.0458161 L7.23884597,27.9204254 L7.06236061,27.8257949 L2.02575686,29.7605999 C1.1469211,29.789272 0.631112682,29.550569 0.478316136,29.0444836 C0.189094103,28.0865362 1.58079287,27.14373 4.6534542,26.2160367 L7.7303587,25.1391476 L11.5669076,24.1287372 C13.1121021,23.5636041 14.4637408,22.9780236 15.6218641,22.371978 Z M32.7555922,29.9261625 L33.0279175,29.8484261 C37.8390214,28.4750757 40.5813919,28.9684751 41.2551109,31.3286394 C41.2004804,32.0314401 40.8373011,32.4787092 40.165562,32.67046 C39.8284052,32.7274339 39.2125437,32.4614655 38.3179591,31.8725466 C37.2624871,31.682974 35.7907076,31.8576728 33.9025762,32.396648 L32.9494377,32.6687255 C29.681518,33.6015674 27.9306488,35.0339836 27.6967777,36.9660171 L27.7547083,38.7165735 L27.871313,39.1250614 C28.270362,40.5230048 29.560428,41.0873729 31.7415497,40.8181826 L32.6946882,40.5461051 L37.7522639,38.660625 C40.9838733,37.7381481 43.5706073,38.3741455 45.5125432,40.5686364 L46.037388,41.8913946 L46.1151244,42.1637199 C46.8924926,44.8869863 45.4590027,47.603197 41.8146118,50.3124336 C40.9015747,50.9657532 39.8641083,51.4582442 38.7021813,51.7899213 L38.1575307,51.9453941 C34.1634066,53.0855341 30.9608112,52.1835682 28.5496484,49.2394694 L27.8109045,47.6832541 C27.6761607,47.2112213 27.8643109,46.6666588 28.3753609,46.0495502 L28.7838488,45.9329456 C29.8342043,45.8294617 30.4630218,46.1408172 30.67032,46.8670216 L30.8062348,47.8590283 C32.1932848,49.6228799 33.7945412,50.2456736 35.6100521,49.7274281 L36.7382214,49.5526451 L37.8275225,49.2416993 C41.1680627,48.2881277 43.1524692,46.298193 43.7808016,43.2718356 L43.5864605,42.5910224 C42.7387823,41.0658941 41.370898,40.572825 39.4827666,41.1118003 L38.3934655,41.422746 L33.4720525,43.2693579 C30.1133573,44.228112 27.4359318,43.2744049 25.4396957,40.408208 L25.2453546,39.7273948 C24.34879,36.5865609 25.4062272,33.9286106 28.4176979,31.7534642 C29.839078,30.9550358 31.2850283,30.3459414 32.7555922,29.9261625 Z M65.6395518,9.42530184 C66.372861,9.24473917 67.0455874,10.0026809 67.657751,11.6991497 L68.7051928,16.5453229 L69.4500101,19.5702084 L76.1195445,17.6363075 C76.8528537,17.4557449 77.378184,17.8124913 77.695551,18.7065575 C77.9212543,19.6231941 76.7966635,20.3862004 74.3217448,20.9955994 L70.2307562,22.1487542 L74.0287738,35.7966678 L75.2116369,41.1928202 L75.5861191,42.1214284 C75.7441114,42.763074 75.3302488,43.2538581 74.344519,43.5937955 C73.7762043,43.7337315 73.1944491,43.1478294 72.5992358,41.8360715 L71.450228,36.5774139 L67.6522104,22.9295003 L66.9308811,22.9612821 L66.1059124,23.1644141 C62.0727115,24.1575088 59.9320063,24.1499062 59.6837327,23.141606 C59.5167122,22.4632949 59.8050575,21.8575874 60.5487772,21.3244652 C61.8447812,21.2970137 63.9523225,20.9725134 66.8714643,20.3509545 L64.8062891,11.9637719 L64.3640963,10.7601741 C64.2331884,10.2285249 64.658336,9.78357191 65.6395518,9.42530184 Z M77.0845767,2.23611369 C77.9142277,2.05302215 78.8538409,3.68242215 79.9034444,7.12436257 C82.4012627,14.5003136 84.1892479,20.6310584 85.2674536,25.516781 L85.5440026,25.4557508 C85.8261645,21.565233 87.2899649,18.3420492 89.9354478,15.7861025 C91.3213817,14.7068641 92.6227398,14.0329879 93.8395613,13.7644536 C97.0844186,13.0483623 100.516439,15.2394476 104.135726,20.3377754 C105.661125,23.3073577 106.737098,26.2117303 107.363678,29.0509805 L107.424708,29.3275294 C108.218105,32.9226838 108.199978,34.8117784 107.370327,34.9948699 L106.986018,35.2246897 C106.488228,35.3345447 105.981864,35.0112698 105.466912,34.2548554 L104.950068,30.5986888 L104.614402,29.0776695 C103.239181,22.8460686 100.695613,18.767164 96.9836201,16.8408333 C95.9050131,16.4214896 95.0041734,16.2819411 94.2810738,16.4221838 L93.5897014,16.5747593 C90.9532549,17.1565835 89.1674549,20.0158061 88.2322478,25.1525128 C87.8015721,29.7718506 88.0358222,34.1187085 88.9350051,38.1932167 C88.5738986,38.6595993 88.2458567,38.9253363 87.9508697,38.9904355 C86.6603015,39.2752445 85.4250743,36.7443671 84.245151,31.3977273 C80.3508818,16.9054694 77.5485906,7.71173558 75.8381934,3.81625012 C75.6957889,3.170966 76.1112458,2.64425913 77.0845767,2.23611369 Z M115.372601,10.1255998 L116.070398,10.0057868 C118.93603,9.51375193 121.182565,10.3252862 122.810072,12.4404139 L123.400705,14.2067595 L123.424667,14.3463188 C124.002968,17.7143665 121.704221,20.503604 116.528359,22.714115 L114.598492,23.1891509 L114.040254,23.2850014 L111.922903,23.5048813 L111.970828,23.7839999 C112.485228,26.7798876 114.188547,29.169307 117.080835,30.9523295 C118.311774,31.3156726 119.383123,31.4190643 120.294915,31.2625077 C122.565091,30.8727139 125.270752,28.7798604 128.411981,24.9838845 L129.061852,24.5849528 C129.694524,24.4763218 130.231604,24.8151209 130.673108,25.6013603 C130.82647,26.4945442 128.812016,28.7081698 124.629686,32.2423034 C123.874835,32.7550447 122.628206,33.3043287 120.889764,33.8901717 C116.758788,34.5994686 113.342243,32.5521046 110.640026,27.7480181 C109.803818,26.2249731 109.245141,24.6447224 108.963978,23.0072186 L108.868128,22.4489814 C107.970324,17.2201339 109.325075,13.3957132 112.932422,10.9756048 C113.87072,10.5271481 114.684105,10.243816 115.372601,10.1255998 Z M111.395725,20.4345769 C111.943434,20.7236661 112.487096,20.8218812 113.026728,20.7292253 L114.282761,20.5135618 C119.028185,19.1432217 121.199577,17.2857756 120.797003,14.9411678 L120.67719,14.2433713 C120.469513,13.0338514 119.178731,12.4892291 116.804806,12.6094881 L115.130095,12.8970394 C112.469151,13.3539289 111.224373,15.8664163 111.395725,20.4345769 Z M158.281714,9.9915252 L158.564556,9.97723337 C162.462481,10.4230232 164.440475,11.2210216 164.498595,12.3712526 C164.52432,12.8803713 164.171021,13.3708259 163.438685,13.8426313 C161.10944,13.015107 159.718563,12.6127843 159.266013,12.6356514 L158.417486,12.6785268 C156.211305,12.7900036 154.241955,14.9689652 152.509376,19.215477 C152.270361,20.0971563 152.174198,20.9999604 152.220885,21.9239164 C152.388577,25.2426157 154.466113,27.0753102 158.453555,27.4220548 L159.874913,27.4920168 L168.18303,26.3633023 C168.93728,26.3251906 169.335837,26.7303942 169.378712,27.5789253 C169.431116,28.6160188 168.23168,29.1964884 165.780368,29.3203515 C163.909035,29.6984745 162.172004,29.9280263 160.569223,30.0090137 L159.437854,30.066181 C154.459805,30.3177183 151.281378,28.2098293 149.902477,23.7424506 L149.519592,21.7768465 L149.512446,21.6354253 C149.320934,17.8453199 151.405004,14.1954933 155.764717,10.6858362 C156.839323,10.2534492 157.678314,10.0220146 158.281714,9.9915252 Z M184.104564,10.0624538 L184.387265,10.0792997 C188.891668,10.3477119 191.695582,11.6968883 192.799093,14.1268694 L193.005988,15.4158728 C192.8556,16.352601 192.502711,17.5136671 191.947309,18.8991059 C192.032353,22.2330012 192.545323,26.3205163 193.486235,31.1617739 C193.446928,31.8214144 192.903378,32.2145788 191.855569,32.3412791 C191.064001,32.2941104 190.538523,30.7970008 190.27912,27.8499052 C190.071417,26.8918388 189.86391,26.406636 189.656595,26.3942823 C185.864308,30.0456319 182.21546,31.766836 178.709942,31.5579461 C175.355199,31.3580408 173.078602,29.0946111 171.880082,24.7675892 L171.74057,22.3477792 C172.13252,15.7702211 174.973242,11.7406974 180.262823,10.2590871 C181.391634,10.0426448 182.672202,9.97710101 184.104564,10.0624538 Z M174.284885,22.4993921 C174.108564,25.4583509 175.354215,27.56578 178.021873,28.8217428 L179.15268,28.8891263 C182.658198,29.0980161 185.969472,25.9003561 189.086601,19.2960505 L189.286913,18.3150176 L189.246637,16.6103847 L189.672528,14.2242665 C189.714082,13.5269323 187.663418,13.0264654 183.520475,12.7228508 C179.468398,12.4813921 176.684493,13.9704345 175.168676,17.1900225 C174.718739,18.3926079 174.424145,20.16238 174.284885,22.4993921 Z M207.733182,0.599411966 C208.480975,0.705010558 208.822942,1.65899947 208.759094,3.46140733 L207.925896,8.34897427 L207.490304,11.4336047 L214.400216,12.123366 C215.148009,12.2289645 215.502638,12.7557264 215.464114,13.7036674 C215.332116,14.6384086 214.004236,14.9275772 211.480435,14.571182 L207.254321,14.1174033 L205.694989,28.1978496 L204.782593,33.6462584 L204.784206,34.6475314 C204.691807,35.3018502 204.124908,35.6031431 203.083493,35.5514191 C202.503954,35.4695802 202.182324,34.7091366 202.118594,33.2700653 L203.01119,27.9618669 L204.570523,13.8814207 L203.88927,13.642212 L203.048007,13.5234142 C198.935146,12.9426219 196.951344,12.1381302 197.096542,11.109915 C197.194221,10.4182065 197.687446,9.96350489 198.576232,9.74579649 C199.789186,10.2030965 201.865923,10.6870335 204.806505,11.1976221 L206.014283,2.64478317 L206.052269,1.36308927 C206.128828,0.820939397 206.689127,0.566382841 207.733182,0.599411966 Z M246.36142,21.1676445 C248.53811,21.6424628 250.696388,23.7074941 252.836318,27.3628006 C253.640685,29.8765017 253.823564,32.1386538 253.384961,34.1493247 L253.203887,34.9794141 C252.495683,38.2260021 250.242007,40.5846793 246.442791,42.0555165 C244.896674,42.5878426 243.145976,42.6407391 241.190644,42.2142074 C236.080957,41.0995918 232.7907,37.5798833 231.319774,31.6549765 C231.236539,30.2647957 231.273387,29.2100139 231.430318,28.4905996 L231.520855,28.0755549 C232.309536,24.4600365 235.120782,21.9814363 239.954676,20.6396801 C241.108398,20.3116219 243.243958,20.4876083 246.36142,21.1676445 Z M234.089113,28.9256518 L233.998576,29.3406965 C233.294397,32.568838 234.944611,35.6341711 238.949269,38.536788 C239.755897,39.0026083 240.509684,39.3119677 241.210652,39.4648752 L242.455786,39.736486 C245.628588,40.4285939 248.198404,39.0567685 250.165311,35.6209687 L250.605449,34.2676654 L250.846881,33.1608795 C251.66373,29.4162355 250.105746,26.3710214 246.172885,24.025146 L245.096278,23.645366 L243.929135,23.6806307 L242.744359,23.1323234 C239.829808,22.4965499 237.111585,23.8843122 234.589609,27.2956521 L234.089113,28.9256518 Z M280.065671,26.7894405 C280.797299,26.9767022 281.056685,27.6764735 280.843838,28.8887754 L278.635086,36.9472497 C277.783046,40.2761535 277.468679,45.3114587 277.691978,52.0533164 L277.656867,52.1904958 C277.213536,52.8565814 276.662646,53.1053527 276.004182,52.9368172 C275.16281,52.7214662 274.884372,51.334716 275.168857,48.7765248 L275.054541,44.65461 L274.643002,44.5492758 C273.39597,46.4518332 271.476294,47.86063 268.883917,48.7757085 C266.760782,49.3041786 265.077357,49.4092396 263.833591,49.0908947 L262.873335,48.845115 C258.373828,47.6934555 256.477287,42.9205306 257.183655,34.5261971 C257.42176,32.0730685 258.093225,28.6882546 259.198069,24.371654 L259.443849,23.4113981 C259.701334,22.4054107 260.287334,22.0194613 261.201868,22.2535385 C262.024949,22.4642079 262.296039,23.1182532 262.015146,24.215694 L261.980035,24.3528734 C258.951077,36.1869437 258.911884,43.1928224 261.862453,45.3707197 C262.395823,45.7995708 263.000876,46.1006004 263.677631,46.2738174 L264.226349,46.414263 C269.09167,47.6595533 272.933199,44.4527442 275.751052,36.7937395 C277.506631,29.9347343 278.658763,26.5755052 279.207483,26.7159515 L280.065671,26.7894405 Z M296.769991,22.0073621 C297.495707,22.2163639 297.701086,23.2087628 297.386136,24.9845885 L295.878497,29.7078876 L295.016369,32.7014507 L301.762225,34.3495036 C302.487941,34.5585054 302.765526,35.1296328 302.594988,36.0629029 C302.333736,36.9700478 300.978485,37.0709281 298.529193,36.3655468 L294.407874,35.3259883 L290.897322,49.0506561 L289.232933,54.3182394 L289.09469,55.3099244 C288.911813,55.9449258 288.308392,56.1640917 287.284407,55.9674286 C286.721978,55.8054522 286.509705,55.0075419 286.647583,53.573674 L288.272785,48.4421618 L291.783337,34.7174939 L291.142169,34.3854846 L290.325743,34.1503587 C286.334305,33.0008485 284.482303,31.9271798 284.769681,30.9293204 C284.963008,30.2580332 285.514903,29.8766728 286.425384,29.7852278 C287.562583,30.4074493 289.551378,31.1766845 292.391831,32.0929563 L294.782278,23.7926223 L294.998896,22.5287953 C295.150422,22.0026512 295.740781,21.8288419 296.769991,22.0073621 Z" id="Is-the-cat-out"></path>
            <path d="M51.0955025,80.7885101 C53.2458224,80.2057972 56.1132964,81.0425231 59.6980106,83.2987131 C61.5711518,85.1580251 62.7768387,87.0808084 63.3151074,89.0671209 L63.5373274,89.8871541 C64.4064585,93.0944109 63.4947889,96.226706 60.802291,99.2841331 C59.6760063,100.469601 58.1470652,101.324048 56.2154219,101.847502 C51.167637,103.215396 46.624819,101.61011 42.5868316,97.0315942 C41.8717552,95.8365225 41.417928,94.8836515 41.2253364,94.1729526 L41.1142264,93.762936 C40.1463304,90.1912181 41.4973993,86.6953387 45.1674737,83.2751927 C46.0398171,82.4519595 48.015807,81.6230736 51.0955025,80.7885101 Z M43.7850715,93.3325839 L43.8961814,93.7426005 C44.7603744,96.9316343 47.6384516,98.8902425 52.5304994,99.6184839 C53.4610565,99.6597322 54.2725608,99.5865307 54.9650367,99.3988774 L56.1950864,99.0655475 C59.3294511,98.2161693 60.9768103,95.8136565 61.1372134,91.8579369 L60.903519,90.4541783 L60.6072258,89.3608008 C59.604762,85.6615216 56.8177986,83.6782225 52.2462522,83.410844 L51.1158379,83.5704651 L50.0965337,84.1401027 L48.7924106,84.2000882 C45.9131687,84.980331 44.1414841,87.465437 43.4773038,91.6554809 L43.7850715,93.3325839 Z M72.4819954,61.9408201 L72.9014689,61.8679979 C74.9368653,61.5286667 77.0831587,62.0852926 79.3404133,63.537892 L79.5508302,63.9239185 C79.647927,64.4832192 79.3144041,65.0694686 78.5502516,65.6826843 C76.1248373,64.7372844 74.5752351,64.317345 73.9013984,64.4228535 L72.9181674,64.5744261 C69.5945953,65.1297414 67.764207,67.3913677 67.4269475,71.3593727 L67.5137475,72.7955243 L67.798347,74.4458992 C68.7957813,78.7889458 69.4801785,80.9250138 69.8515591,80.8541673 L73.6321494,79.3814113 C74.28764,79.2803624 74.7861126,79.7323715 75.127582,80.7374522 C75.2553887,81.5030191 73.9497935,82.286704 71.2107574,83.0885303 L71.1066098,83.259572 C70.8224998,83.2897744 70.6935718,83.3988339 70.7198221,83.5867541 C72.7281029,88.8110268 73.9697456,92.9197731 74.4447876,95.9131162 C74.5686422,96.5824933 74.1716704,97.0675872 73.2538604,97.3684124 C72.4149093,97.5140576 71.8589699,96.7457108 71.5860256,95.0633489 C71.247202,92.9501086 70.0937354,89.3639631 68.1255913,84.3048048 L65.3261104,84.8978784 C64.2035568,84.9958821 63.5674909,84.5773197 63.4178937,83.6421787 C63.2945467,82.8949578 64.0740424,82.3848829 65.7564043,82.1119387 L67.1256617,81.7499492 C66.2528807,79.358473 65.5199359,76.9427588 64.9268052,74.5027342 C64.0242545,68.9513859 65.8635787,64.9680483 70.4448328,62.5526016 L72.4819954,61.9408201 Z M101.306455,56.9856073 C102.047847,56.841793 102.681987,57.6323007 103.208895,59.3571542 L104.013661,64.2494829 L104.606892,67.3077115 L111.364471,65.7084032 C112.105864,65.5645888 112.612773,65.9470578 112.885215,66.8558216 C113.064983,67.7825622 111.903785,68.4886085 109.401585,68.9739819 L105.258239,69.9219439 L108.371775,83.7420877 L109.284402,89.1904579 L109.612167,90.1365656 C109.738005,90.785284 109.300211,91.2548455 108.298773,91.5452643 C107.724194,91.6567204 107.172343,91.0425698 106.643204,89.7027939 L105.757543,84.3934341 L102.644006,70.5732902 L101.921989,70.5691051 L101.087927,70.7308954 C97.0102684,71.5218742 94.8725989,71.407658 94.6748542,70.3882434 C94.5418259,69.7024554 94.859982,69.1118614 95.6293321,68.6164437 C96.9250948,68.6535768 99.0461829,68.4344504 101.99266,67.9590579 L100.347792,59.4794241 L99.9660958,58.2552956 C99.8618304,57.7177861 100.308612,57.2945609 101.306455,56.9856073 Z M113.627403,50.4471147 C114.467046,50.317335 115.300775,52.0033699 116.128615,55.5052698 C118.150694,63.0255718 119.543842,69.2579118 120.3081,74.2024768 L120.58798,74.1592172 C121.117815,70.2946319 122.784299,67.1714193 125.587482,64.7894856 C127.039456,63.8008808 128.381161,63.2114155 129.612638,63.0210721 C132.896575,62.5134895 136.181792,64.9191018 139.468386,70.2379812 C140.801192,73.2988454 141.689649,76.2659557 142.133784,79.139401 L142.177044,79.4192806 C142.739422,83.0577341 142.600792,84.9418224 141.761149,85.071602 L141.362959,85.2764313 C140.859173,85.3542991 140.374469,84.9993727 139.908832,84.2116415 L139.626336,80.5299465 L139.388408,78.9906085 C138.413619,72.6839558 136.135502,68.451062 132.55399,66.2918002 C131.504339,65.8044868 130.614239,65.6077415 129.883665,65.7015585 L129.183966,65.8097076 C126.515766,66.2221185 124.551163,68.9615652 123.290096,74.02813 C122.565545,78.6105736 122.521951,82.9635204 123.159314,87.087101 C122.769184,87.5294915 122.424854,87.773755 122.126314,87.8198989 C120.820203,88.0217783 119.748984,85.4172404 118.912627,80.0062071 C115.951022,65.2949946 113.74108,55.9411861 112.282734,51.9445012 C112.181794,51.2914454 112.630013,50.7923216 113.627403,50.4471147 Z M152.262556,61.4694168 L152.968829,61.4198792 C155.86927,61.2164438 158.023544,62.2482443 159.431717,64.5153117 L159.843023,66.3318056 L159.852931,66.4730602 C160.092034,69.88202 157.526264,72.4277822 152.155544,74.1104231 L150.187888,74.3903829 L149.62287,74.430013 L147.494144,74.4373712 L147.513959,74.7198803 C147.726642,77.7521595 149.182858,80.2997176 151.882653,82.3626312 C153.071159,82.8470706 154.12683,83.0569224 155.049698,82.992193 C157.34745,82.8310298 160.248565,81.0188028 163.753132,77.5554575 L164.43959,77.2234108 C165.079947,77.1784965 165.580513,77.5692311 165.941303,78.3956264 C166.004711,79.29966 163.779289,81.3010743 159.264969,84.3999293 C158.462692,84.8347343 157.167447,85.2567942 155.379195,85.6661216 C151.19804,85.9593856 148.003004,83.5811034 145.793991,78.5312035 C145.114043,76.9322729 144.71595,75.3041347 144.599701,73.6467399 L144.560071,73.0817217 C144.188867,67.7893587 145.918725,64.1193268 149.749697,62.0715158 C150.728086,61.7189918 151.565697,61.5182942 152.262556,61.4694168 Z M147.276179,71.3297715 C147.792284,71.6721059 148.323422,71.8241161 148.869609,71.7858069 L150.1409,71.6966392 C154.999439,70.8069899 157.345449,69.1756456 157.179002,66.8025576 L157.129465,66.0962849 C157.043599,64.8720728 155.81365,64.2012847 153.439581,64.0839004 L151.744527,64.2027906 C149.05126,64.3916949 147.561826,66.7673314 147.276179,71.3297715 Z M190.301349,51.0518836 C190.920745,51.1192629 191.297114,51.5875117 191.430468,52.4566441 L190.857971,55.1006682 L190.812031,55.5229815 C190.121903,61.8670973 189.610291,68.3159976 189.277179,74.8698756 C189.533434,74.7838015 190.193497,73.9535131 191.257387,72.3789855 C193.495274,69.9635922 195.749743,68.8794405 198.020862,69.126498 L198.583946,69.1877516 C202.225243,69.5838603 204.72318,72.3719522 206.07783,77.5521107 C206.230741,78.7652208 206.259213,79.8128451 206.163249,80.6950151 L206.071368,81.5396417 C205.648716,85.4249434 203.392093,87.8382588 199.301431,88.7796602 L196.440069,88.8957054 C194.450494,88.6792749 191.894255,87.7365023 188.771275,86.0673594 C188.167352,86.3814969 187.724626,86.5232501 187.443082,86.4926231 L187.302311,86.4773097 C185.988441,86.3343839 185.673511,83.1190656 186.357514,76.8312584 C186.998937,67.4431748 187.576907,60.3842726 188.09144,55.6543401 L188.305828,53.6835447 C188.510007,51.8065873 189.175174,50.9293757 190.301349,51.0518836 Z M188.982713,82.8143107 C188.935751,83.2460109 190.819752,84.2580913 194.634771,85.8505824 L196.871795,86.2363679 C199.687231,86.5426376 201.639743,85.6155523 202.72939,83.4550844 L203.335464,81.8117714 L203.565165,79.7002049 C203.8551,77.0349255 202.739338,74.6345823 200.217846,72.4991034 L198.574533,71.8930293 L197.589136,71.7858355 C194.586004,71.4591479 191.732538,74.9944998 189.028653,82.3919974 L188.982713,82.8143107 Z M221.514603,70.9649207 L221.793688,71.0130404 C226.240466,71.7797519 228.877306,73.4318072 229.704287,75.969256 L229.766834,77.2732588 C229.513405,78.1875072 229.033826,79.3022309 228.328082,80.6174635 C228.042561,83.9401986 228.098675,88.0593938 228.496426,92.9751728 C228.384146,93.6263747 227.800317,93.9567796 226.744919,93.9663973 C225.963477,93.8316614 225.607415,92.2854777 225.676722,89.3277998 C225.576641,88.3525995 225.424271,87.8473629 225.219608,87.8120749 C221.045478,91.0199456 217.228134,92.3255176 213.767461,91.72883 C210.455635,91.1578064 208.444329,88.6556754 207.733485,84.2223619 L207.863417,81.8020186 C208.983009,75.3086058 212.253428,71.6192805 217.674774,70.733932 C218.820634,70.6441174 220.100564,70.7211128 221.514603,70.9649207 Z M210.375183,82.2350962 C209.871528,85.1562017 210.875571,87.388868 213.387344,88.9331622 L214.503684,89.1256411 C217.964357,89.7223287 221.610089,86.9119553 225.440991,80.6944365 L225.748953,79.7416985 L225.898128,78.0431279 L226.586231,75.7190241 C226.704927,75.0306107 224.722482,74.3056265 220.638838,73.5440497 C216.638598,72.8543301 213.70662,74.0251775 211.842817,77.056627 C211.262181,78.2018419 210.772975,79.927981 210.375183,82.2350962 Z M247.030115,76.0117218 L247.168427,76.0420629 C247.666356,76.1512916 248.804373,76.6908684 250.582512,77.6608094 C251.68902,77.9035399 252.151242,78.4398374 251.969195,79.269718 L251.483736,81.482722 L250.867075,86.276379 L250.07465,88.5670134 L249.545457,91.6402351 C247.551022,100.732039 245.190443,106.206182 242.463648,108.062828 C240.96509,108.990496 239.496603,109.29655 238.058144,108.981001 C235.420967,108.402493 232.528636,106.608276 229.381064,103.598296 C229.482202,103.137251 229.440562,102.886505 229.256144,102.84605 C229.426056,102.071495 230.034334,101.721707 231.080996,101.796675 C233.959085,104.360955 236.569143,105.899961 238.911251,106.413741 C241.308684,106.939657 243.389637,104.061904 245.154173,97.7803956 L245.990332,94.6295435 L245.85202,94.5992024 C242.976853,96.8678738 240.229944,97.7149658 237.611209,97.1405037 L236.781333,96.9584568 C233.388043,96.2140834 231.507625,93.7720434 231.140024,89.6322636 L231.43988,86.943639 L231.470221,86.8053263 C232.45328,82.3239707 235.249296,78.8299206 239.858355,76.323071 C242.500304,75.6462249 244.890867,75.5424429 247.030115,76.0117218 Z M234.098164,87.3818082 L234.067822,87.5201209 C233.416496,90.4892495 234.026234,92.5559006 235.897057,93.7201363 L236.942876,94.2394911 L238.602629,94.6035849 C240.87097,95.1011823 243.360299,93.6660397 246.070691,90.2981141 L247.446708,87.9905315 L248.869187,80.1843352 C248.273108,79.3770522 247.421828,78.8520533 246.31532,78.6093229 C244.176072,78.140044 241.949697,78.3764881 239.636129,79.3186622 C236.619733,81.6143404 234.773763,84.3020289 234.098164,87.3818082 Z M259.584228,77.29284 L259.721558,77.3273553 C262.834401,78.1097074 264.628993,80.2641218 265.105389,83.7906634 C265.196456,84.2029008 265.161454,84.7294513 265.000382,85.3703306 L264.931351,85.6449918 C264.185816,88.6113475 261.585386,90.0505029 257.129983,89.962501 L256.438214,93.8767884 C255.988381,94.7371054 255.415567,95.0798195 254.719755,94.9049408 C253.804213,94.6748372 253.634074,93.415377 254.209333,91.1265223 C254.407222,90.3391563 254.465721,89.3318317 254.384833,88.1045183 C254.637947,87.0974223 255.908912,86.8815069 258.197767,87.4567657 C260.569946,87.3132024 261.92169,86.5822415 262.253039,85.2638612 L262.460131,84.4398776 C262.897328,82.7003481 261.903214,81.2337978 259.477758,80.0401827 L258.653775,79.8330906 L257.039592,79.8654134 C256.202285,79.3240256 255.871076,78.7054351 256.045955,78.0096233 C256.413341,77.1675196 257.592754,76.9285943 259.584228,77.29284 Z M254.30484,97.1367457 C255.082807,97.5269472 255.379744,98.0882563 255.195661,98.8206898 C255.011579,99.5531233 254.450269,99.850061 253.511717,99.7115116 C252.889149,99.5550412 252.637988,99.0052371 252.758226,98.0620828 C252.882482,97.5676902 253.398015,97.2592475 254.30484,97.1367457 Z" id="of-the-bag?"></path>
        </g>
    </g>
</svg>